<?xml version="1.0" encoding="UTF-8" standalone="no"?>
<!DOCTYPE svg PUBLIC "-//W3C//DTD SVG 1.1//EN"
 "http://www.w3.org/Graphics/SVG/1.1/DTD/svg11.dtd">
<!-- Generated by graphviz version 12.2.1 (20241206.2353)
 -->
<!-- Pages: 1 -->
<svg width="906pt" height="1228pt"
 viewBox="0.00 0.00 905.88 1228.00" xmlns="http://www.w3.org/2000/svg" xmlns:xlink="http://www.w3.org/1999/xlink">
<g id="graph0" class="graph" transform="scale(1 1) rotate(0) translate(4 1224)">
<g id="a_graph0"><a xlink:title=" ">
<polygon fill="white" stroke="none" points="-4,4 -4,-1224 901.88,-1224 901.88,4 -4,4"/>
</a>
</g>
<!-- 1 -->
<g id="node1" class="node">
<title>1</title>
<polygon fill="#e0b705" stroke="#e0b705" points="641.25,-1220 591.5,-1220 591.5,-1176 641.25,-1176 641.25,-1220"/>
<text text-anchor="middle" x="616.38" y="-1206.5" font-family="Arial" font-size="10.00" fill="#ffffff">main</text>
<text text-anchor="middle" x="616.38" y="-1194.5" font-family="Arial" font-size="10.00" fill="#ffffff">79.70%</text>
<text text-anchor="middle" x="616.38" y="-1182.5" font-family="Arial" font-size="10.00" fill="#ffffff">(0.00%)</text>
</g>
<!-- 3 -->
<g id="node2" class="node">
<title>3</title>
<polygon fill="#d8d906" stroke="#d8d906" points="604.88,-1134 507.88,-1134 507.88,-1078 604.88,-1078 604.88,-1134"/>
<text text-anchor="middle" x="556.38" y="-1120.5" font-family="Arial" font-size="10.00" fill="#ffffff">Solver::manyRuns</text>
<text text-anchor="middle" x="556.38" y="-1108.5" font-family="Arial" font-size="10.00" fill="#ffffff">74.84%</text>
<text text-anchor="middle" x="556.38" y="-1096.5" font-family="Arial" font-size="10.00" fill="#ffffff">(0.00%)</text>
<text text-anchor="middle" x="556.38" y="-1084.5" font-family="Arial" font-size="10.00" fill="#ffffff">1×</text>
</g>
<!-- 1&#45;&gt;3 -->
<g id="edge1" class="edge">
<title>1&#45;&gt;3</title>
<path fill="none" stroke="#d8d906" stroke-width="2.99" d="M602.16,-1175.67C596.1,-1166.59 588.84,-1155.7 581.91,-1145.3"/>
<polygon fill="#d8d906" stroke="#d8d906" stroke-width="2.99" points="584.46,-1143.64 577.1,-1138.09 579.39,-1147.02 584.46,-1143.64"/>
<text text-anchor="middle" x="611.75" y="-1157.5" font-family="Arial" font-size="10.00" fill="#d8d906">74.84%</text>
<text text-anchor="middle" x="611.75" y="-1145.5" font-family="Arial" font-size="10.00" fill="#d8d906">1×</text>
</g>
<!-- 22 -->
<g id="node3" class="node">
<title>22</title>
<polygon fill="#0d2079" stroke="#0d2079" points="742.88,-1134 615.88,-1134 615.88,-1078 742.88,-1078 742.88,-1134"/>
<text text-anchor="middle" x="679.38" y="-1120.5" font-family="Arial" font-size="10.00" fill="#ffffff">Solver::writeSolutionSVG</text>
<text text-anchor="middle" x="679.38" y="-1108.5" font-family="Arial" font-size="10.00" fill="#ffffff">4.57%</text>
<text text-anchor="middle" x="679.38" y="-1096.5" font-family="Arial" font-size="10.00" fill="#ffffff">(0.00%)</text>
<text text-anchor="middle" x="679.38" y="-1084.5" font-family="Arial" font-size="10.00" fill="#ffffff">1×</text>
</g>
<!-- 1&#45;&gt;22 -->
<g id="edge2" class="edge">
<title>1&#45;&gt;22</title>
<path fill="none" stroke="#0d2079" stroke-width="0.5" d="M631.31,-1175.67C639.22,-1164.36 649.09,-1150.27 657.82,-1137.79"/>
<polygon fill="#0d2079" stroke="#0d2079" stroke-width="0.5" points="658.81,-1138.51 659.82,-1134.94 656.81,-1137.11 658.81,-1138.51"/>
<text text-anchor="middle" x="667.39" y="-1157.5" font-family="Arial" font-size="10.00" fill="#0d2079">4.57%</text>
<text text-anchor="middle" x="667.39" y="-1145.5" font-family="Arial" font-size="10.00" fill="#0d2079">1×</text>
</g>
<!-- 2 -->
<g id="node4" class="node">
<title>2</title>
<polygon fill="#d8d906" stroke="#d8d906" points="581.88,-1036 502.88,-1036 502.88,-980 581.88,-980 581.88,-1036"/>
<text text-anchor="middle" x="542.38" y="-1022.5" font-family="Arial" font-size="10.00" fill="#ffffff">Solver::greedy</text>
<text text-anchor="middle" x="542.38" y="-1010.5" font-family="Arial" font-size="10.00" fill="#ffffff">74.84%</text>
<text text-anchor="middle" x="542.38" y="-998.5" font-family="Arial" font-size="10.00" fill="#ffffff">(0.00%)</text>
<text text-anchor="middle" x="542.38" y="-986.5" font-family="Arial" font-size="10.00" fill="#ffffff">8×</text>
</g>
<!-- 3&#45;&gt;2 -->
<g id="edge5" class="edge">
<title>3&#45;&gt;2</title>
<path fill="none" stroke="#d8d906" stroke-width="2.99" d="M552.4,-1077.75C551.11,-1068.93 549.66,-1058.96 548.27,-1049.4"/>
<polygon fill="#d8d906" stroke="#d8d906" stroke-width="2.99" points="551.28,-1048.97 547.01,-1040.8 545.25,-1049.85 551.28,-1048.97"/>
<text text-anchor="middle" x="567.54" y="-1059.5" font-family="Arial" font-size="10.00" fill="#d8d906">74.84%</text>
<text text-anchor="middle" x="567.54" y="-1047.5" font-family="Arial" font-size="10.00" fill="#d8d906">8×</text>
</g>
<!-- 21 -->
<g id="node22" class="node">
<title>21</title>
<polygon fill="#0d2079" stroke="#0d2079" points="822.62,-1036 640.12,-1036 640.12,-980 822.62,-980 822.62,-1036"/>
<text text-anchor="middle" x="731.38" y="-1022.5" font-family="Arial" font-size="10.00" fill="#ffffff">__gnu_cxx::__normal_iterator std::find</text>
<text text-anchor="middle" x="731.38" y="-1010.5" font-family="Arial" font-size="10.00" fill="#ffffff">4.57%</text>
<text text-anchor="middle" x="731.38" y="-998.5" font-family="Arial" font-size="10.00" fill="#ffffff">(0.00%)</text>
<text text-anchor="middle" x="731.38" y="-986.5" font-family="Arial" font-size="10.00" fill="#ffffff">20000×</text>
</g>
<!-- 22&#45;&gt;21 -->
<g id="edge22" class="edge">
<title>22&#45;&gt;21</title>
<path fill="none" stroke="#0d2079" stroke-width="0.5" d="M694.14,-1077.75C700.5,-1065.99 707.99,-1052.18 714.57,-1040.03"/>
<polygon fill="#0d2079" stroke="#0d2079" stroke-width="0.5" points="715.63,-1040.65 716.22,-1036.99 713.47,-1039.48 715.63,-1040.65"/>
<text text-anchor="middle" x="727.69" y="-1059.5" font-family="Arial" font-size="10.00" fill="#0d2079">4.57%</text>
<text text-anchor="middle" x="727.69" y="-1047.5" font-family="Arial" font-size="10.00" fill="#0d2079">20000×</text>
</g>
<!-- 4 -->
<g id="node5" class="node">
<title>4</title>
<polygon fill="#0ab21d" stroke="#0ab21d" points="455.12,-938 323.62,-938 323.62,-882 455.12,-882 455.12,-938"/>
<text text-anchor="middle" x="389.38" y="-924.5" font-family="Arial" font-size="10.00" fill="#ffffff">Solver::removeCandidates</text>
<text text-anchor="middle" x="389.38" y="-912.5" font-family="Arial" font-size="10.00" fill="#ffffff">47.21%</text>
<text text-anchor="middle" x="389.38" y="-900.5" font-family="Arial" font-size="10.00" fill="#ffffff">(0.00%)</text>
<text text-anchor="middle" x="389.38" y="-888.5" font-family="Arial" font-size="10.00" fill="#ffffff">15438×</text>
</g>
<!-- 2&#45;&gt;4 -->
<g id="edge3" class="edge">
<title>2&#45;&gt;4</title>
<path fill="none" stroke="#0ab21d" stroke-width="1.89" d="M502.58,-982.03C483.82,-970.26 461.21,-956.07 441.14,-943.48"/>
<polygon fill="#0ab21d" stroke="#0ab21d" stroke-width="1.89" points="442.56,-941.52 435.43,-939.9 439.99,-945.61 442.56,-941.52"/>
<text text-anchor="middle" x="500.58" y="-961.5" font-family="Arial" font-size="10.00" fill="#0ab21d">47.21%</text>
<text text-anchor="middle" x="500.58" y="-949.5" font-family="Arial" font-size="10.00" fill="#0ab21d">15438×</text>
</g>
<!-- 10 -->
<g id="node6" class="node">
<title>10</title>
<polygon fill="#0c9590" stroke="#0c9590" points="603.62,-938 481.12,-938 481.12,-882 603.62,-882 603.62,-938"/>
<text text-anchor="middle" x="542.38" y="-924.5" font-family="Arial" font-size="10.00" fill="#ffffff">Solver::getExtremePoint</text>
<text text-anchor="middle" x="542.38" y="-912.5" font-family="Arial" font-size="10.00" fill="#ffffff">25.89%</text>
<text text-anchor="middle" x="542.38" y="-900.5" font-family="Arial" font-size="10.00" fill="#ffffff">(0.00%)</text>
<text text-anchor="middle" x="542.38" y="-888.5" font-family="Arial" font-size="10.00" fill="#ffffff">15438×</text>
</g>
<!-- 2&#45;&gt;10 -->
<g id="edge4" class="edge">
<title>2&#45;&gt;10</title>
<path fill="none" stroke="#0c9590" stroke-width="1.04" d="M542.38,-979.75C542.38,-968.9 542.38,-956.31 542.38,-944.89"/>
<polygon fill="#0c9590" stroke="#0c9590" stroke-width="1.04" points="544.16,-945 542.38,-939.9 540.59,-945 544.16,-945"/>
<text text-anchor="middle" x="558.88" y="-961.5" font-family="Arial" font-size="10.00" fill="#0c9590">25.89%</text>
<text text-anchor="middle" x="558.88" y="-949.5" font-family="Arial" font-size="10.00" fill="#0c9590">15438×</text>
</g>
<!-- 5 -->
<g id="node7" class="node">
<title>5</title>
<polygon fill="#0ab21d" stroke="#0ab21d" points="418.12,-840 250.62,-840 250.62,-784 418.12,-784 418.12,-840"/>
<text text-anchor="middle" x="334.38" y="-826.5" font-family="Arial" font-size="10.00" fill="#ffffff">std::vector::size_type std::erase_if</text>
<text text-anchor="middle" x="334.38" y="-814.5" font-family="Arial" font-size="10.00" fill="#ffffff">47.21%</text>
<text text-anchor="middle" x="334.38" y="-802.5" font-family="Arial" font-size="10.00" fill="#ffffff">(0.00%)</text>
<text text-anchor="middle" x="334.38" y="-790.5" font-family="Arial" font-size="10.00" fill="#ffffff">15438×</text>
</g>
<!-- 4&#45;&gt;5 -->
<g id="edge6" class="edge">
<title>4&#45;&gt;5</title>
<path fill="none" stroke="#0ab21d" stroke-width="1.89" d="M373.76,-881.75C367.84,-871.41 361.01,-859.48 354.71,-848.5"/>
<polygon fill="#0ab21d" stroke="#0ab21d" stroke-width="1.89" points="356.98,-847.59 351.45,-842.8 352.78,-849.99 356.98,-847.59"/>
<text text-anchor="middle" x="384.92" y="-863.5" font-family="Arial" font-size="10.00" fill="#0ab21d">47.21%</text>
<text text-anchor="middle" x="384.92" y="-851.5" font-family="Arial" font-size="10.00" fill="#0ab21d">15438×</text>
</g>
<!-- 11 -->
<g id="node15" class="node">
<title>11</title>
<polygon fill="#0c9590" stroke="#0c9590" points="653.5,-840 431.25,-840 431.25,-784 653.5,-784 653.5,-840"/>
<text text-anchor="middle" x="542.38" y="-826.5" font-family="Arial" font-size="10.00" fill="#ffffff">__gnu_cxx::__normal_iterator std::min_element</text>
<text text-anchor="middle" x="542.38" y="-814.5" font-family="Arial" font-size="10.00" fill="#ffffff">25.89%</text>
<text text-anchor="middle" x="542.38" y="-802.5" font-family="Arial" font-size="10.00" fill="#ffffff">(0.00%)</text>
<text text-anchor="middle" x="542.38" y="-790.5" font-family="Arial" font-size="10.00" fill="#ffffff">15438×</text>
</g>
<!-- 10&#45;&gt;11 -->
<g id="edge14" class="edge">
<title>10&#45;&gt;11</title>
<path fill="none" stroke="#0c9590" stroke-width="1.04" d="M542.38,-881.75C542.38,-870.9 542.38,-858.31 542.38,-846.89"/>
<polygon fill="#0c9590" stroke="#0c9590" stroke-width="1.04" points="544.16,-847 542.38,-841.9 540.59,-847 544.16,-847"/>
<text text-anchor="middle" x="558.88" y="-863.5" font-family="Arial" font-size="10.00" fill="#0c9590">25.89%</text>
<text text-anchor="middle" x="558.88" y="-851.5" font-family="Arial" font-size="10.00" fill="#0c9590">15438×</text>
</g>
<!-- 6 -->
<g id="node8" class="node">
<title>6</title>
<polygon fill="#0ab120" stroke="#0ab120" points="421.38,-742 201.38,-742 201.38,-686 421.38,-686 421.38,-742"/>
<text text-anchor="middle" x="311.38" y="-728.5" font-family="Arial" font-size="10.00" fill="#ffffff">__gnu_cxx::__normal_iterator std::__remove_if</text>
<text text-anchor="middle" x="311.38" y="-716.5" font-family="Arial" font-size="10.00" fill="#ffffff">46.70%</text>
<text text-anchor="middle" x="311.38" y="-704.5" font-family="Arial" font-size="10.00" fill="#ffffff">(2.54%)</text>
<text text-anchor="middle" x="311.38" y="-692.5" font-family="Arial" font-size="10.00" fill="#ffffff">15438×</text>
</g>
<!-- 5&#45;&gt;6 -->
<g id="edge7" class="edge">
<title>5&#45;&gt;6</title>
<path fill="none" stroke="#0ab120" stroke-width="1.87" d="M327.85,-783.75C325.44,-773.71 322.68,-762.18 320.11,-751.47"/>
<polygon fill="#0ab120" stroke="#0ab120" stroke-width="1.87" points="322.48,-751.13 318.58,-745.07 317.85,-752.24 322.48,-751.13"/>
<text text-anchor="middle" x="342.11" y="-765.5" font-family="Arial" font-size="10.00" fill="#0ab120">46.70%</text>
<text text-anchor="middle" x="342.11" y="-753.5" font-family="Arial" font-size="10.00" fill="#0ab120">15438×</text>
</g>
<!-- 7 -->
<g id="node9" class="node">
<title>7</title>
<polygon fill="#0ba554" stroke="#0ba554" points="303,-546 95.75,-546 95.75,-490 303,-490 303,-546"/>
<text text-anchor="middle" x="199.38" y="-532.5" font-family="Arial" font-size="10.00" fill="#ffffff">bool __gnu_cxx::__ops::_Iter_pred::operator</text>
<text text-anchor="middle" x="199.38" y="-520.5" font-family="Arial" font-size="10.00" fill="#ffffff">38.07%</text>
<text text-anchor="middle" x="199.38" y="-508.5" font-family="Arial" font-size="10.00" fill="#ffffff">(2.03%)</text>
<text text-anchor="middle" x="199.38" y="-496.5" font-family="Arial" font-size="10.00" fill="#ffffff">153363216×</text>
</g>
<!-- 6&#45;&gt;7 -->
<g id="edge8" class="edge">
<title>6&#45;&gt;7</title>
<path fill="none" stroke="#0c8591" stroke-width="0.91" d="M212.97,-685.65C193.72,-675.69 175.94,-662.2 164.38,-644 146.42,-615.73 161.1,-578.17 176.58,-551.62"/>
<polygon fill="#0c8591" stroke="#0c8591" stroke-width="0.91" points="177.94,-552.62 178.97,-547.64 175.06,-550.89 177.94,-552.62"/>
<text text-anchor="middle" x="188.38" y="-618.5" font-family="Arial" font-size="10.00" fill="#0c8591">22.87%</text>
<text text-anchor="middle" x="188.38" y="-606.5" font-family="Arial" font-size="10.00" fill="#0c8591">92134649×</text>
</g>
<!-- 13 -->
<g id="node10" class="node">
<title>13</title>
<polygon fill="#0c7b8e" stroke="#0c7b8e" points="420.12,-644 216.62,-644 216.62,-588 420.12,-588 420.12,-644"/>
<text text-anchor="middle" x="318.38" y="-630.5" font-family="Arial" font-size="10.00" fill="#ffffff">__gnu_cxx::__normal_iterator std::__find_if</text>
<text text-anchor="middle" x="318.38" y="-618.5" font-family="Arial" font-size="10.00" fill="#ffffff">21.29%</text>
<text text-anchor="middle" x="318.38" y="-606.5" font-family="Arial" font-size="10.00" fill="#ffffff">(6.09%)</text>
<text text-anchor="middle" x="318.38" y="-594.5" font-family="Arial" font-size="10.00" fill="#ffffff">15438×</text>
</g>
<!-- 6&#45;&gt;13 -->
<g id="edge9" class="edge">
<title>6&#45;&gt;13</title>
<path fill="none" stroke="#0c7b8e" stroke-width="0.85" d="M313.36,-685.75C314.18,-674.6 315.12,-661.6 315.97,-649.93"/>
<polygon fill="#0c7b8e" stroke="#0c7b8e" stroke-width="0.85" points="317.56,-650.31 316.29,-645.6 314.35,-650.07 317.56,-650.31"/>
<text text-anchor="middle" x="332.21" y="-667.5" font-family="Arial" font-size="10.00" fill="#0c7b8e">21.29%</text>
<text text-anchor="middle" x="332.21" y="-655.5" font-family="Arial" font-size="10.00" fill="#0c7b8e">15438×</text>
</g>
<!-- 8 -->
<g id="node11" class="node">
<title>8</title>
<polygon fill="#0ba260" stroke="#0ba260" points="335.62,-448 63.12,-448 63.12,-392 335.62,-392 335.62,-448"/>
<text text-anchor="middle" x="199.38" y="-434.5" font-family="Arial" font-size="10.00" fill="#ffffff">std::__invoke_result::type std::reference_wrapper::operator</text>
<text text-anchor="middle" x="199.38" y="-422.5" font-family="Arial" font-size="10.00" fill="#ffffff">36.04%</text>
<text text-anchor="middle" x="199.38" y="-410.5" font-family="Arial" font-size="10.00" fill="#ffffff">(4.57%)</text>
<text text-anchor="middle" x="199.38" y="-398.5" font-family="Arial" font-size="10.00" fill="#ffffff">153363216×</text>
</g>
<!-- 7&#45;&gt;8 -->
<g id="edge10" class="edge">
<title>7&#45;&gt;8</title>
<path fill="none" stroke="#0ba260" stroke-width="1.44" d="M199.38,-489.75C199.38,-479.41 199.38,-467.48 199.38,-456.5"/>
<polygon fill="#0ba260" stroke="#0ba260" stroke-width="1.44" points="201.48,-456.5 199.38,-450.5 197.28,-456.5 201.48,-456.5"/>
<text text-anchor="middle" x="226" y="-471.5" font-family="Arial" font-size="10.00" fill="#0ba260">36.04%</text>
<text text-anchor="middle" x="226" y="-459.5" font-family="Arial" font-size="10.00" fill="#0ba260">153363216×</text>
</g>
<!-- 13&#45;&gt;7 -->
<g id="edge17" class="edge">
<title>13&#45;&gt;7</title>
<path fill="none" stroke="#0c5786" stroke-width="0.61" d="M284.59,-587.75C269.64,-575.69 252.01,-561.46 236.68,-549.09"/>
<polygon fill="#0c5786" stroke="#0c5786" stroke-width="0.61" points="237.85,-548.29 233.96,-546.9 236.14,-550.41 237.85,-548.29"/>
<text text-anchor="middle" x="297.03" y="-569.5" font-family="Arial" font-size="10.00" fill="#0c5786">15.20%</text>
<text text-anchor="middle" x="297.03" y="-557.5" font-family="Arial" font-size="10.00" fill="#0c5786">61228567×</text>
</g>
<!-- 9 -->
<g id="node12" class="node">
<title>9</title>
<polygon fill="#0c968b" stroke="#0c968b" points="208.38,-350 18.38,-350 18.38,-294 208.38,-294 208.38,-350"/>
<text text-anchor="middle" x="113.38" y="-336.5" font-family="Arial" font-size="10.00" fill="#ffffff">std::__invoke_result::type std::__invoke</text>
<text text-anchor="middle" x="113.38" y="-324.5" font-family="Arial" font-size="10.00" fill="#ffffff">26.90%</text>
<text text-anchor="middle" x="113.38" y="-312.5" font-family="Arial" font-size="10.00" fill="#ffffff">(7.11%)</text>
<text text-anchor="middle" x="113.38" y="-300.5" font-family="Arial" font-size="10.00" fill="#ffffff">153363216×</text>
</g>
<!-- 8&#45;&gt;9 -->
<g id="edge11" class="edge">
<title>8&#45;&gt;9</title>
<path fill="none" stroke="#0c968b" stroke-width="1.08" d="M174.96,-391.75C164.79,-380.4 152.91,-367.13 142.31,-355.3"/>
<polygon fill="#0c968b" stroke="#0c968b" stroke-width="1.08" points="143.77,-354.2 138.94,-351.54 141.05,-356.63 143.77,-354.2"/>
<text text-anchor="middle" x="193.23" y="-373.5" font-family="Arial" font-size="10.00" fill="#0c968b">26.90%</text>
<text text-anchor="middle" x="193.23" y="-361.5" font-family="Arial" font-size="10.00" fill="#0c968b">153363216×</text>
</g>
<!-- 20 -->
<g id="node13" class="node">
<title>20</title>
<polygon fill="#0d2079" stroke="#0d2079" points="353,-350 217.75,-350 217.75,-294 353,-294 353,-350"/>
<text text-anchor="middle" x="285.38" y="-336.5" font-family="Arial" font-size="10.00" fill="#ffffff">std::reference_wrapper::get</text>
<text text-anchor="middle" x="285.38" y="-324.5" font-family="Arial" font-size="10.00" fill="#ffffff">4.57%</text>
<text text-anchor="middle" x="285.38" y="-312.5" font-family="Arial" font-size="10.00" fill="#ffffff">(4.57%)</text>
<text text-anchor="middle" x="285.38" y="-300.5" font-family="Arial" font-size="10.00" fill="#ffffff">153363216×</text>
</g>
<!-- 8&#45;&gt;20 -->
<g id="edge12" class="edge">
<title>8&#45;&gt;20</title>
<path fill="none" stroke="#0d2079" stroke-width="0.5" d="M223.79,-391.75C234.5,-379.79 247.12,-365.7 258.14,-353.41"/>
<polygon fill="#0d2079" stroke="#0d2079" stroke-width="0.5" points="258.97,-354.31 260.39,-350.88 257.15,-352.67 258.97,-354.31"/>
<text text-anchor="middle" x="279.23" y="-373.5" font-family="Arial" font-size="10.00" fill="#0d2079">4.57%</text>
<text text-anchor="middle" x="279.23" y="-361.5" font-family="Arial" font-size="10.00" fill="#0d2079">153363216×</text>
</g>
<!-- 15 -->
<g id="node14" class="node">
<title>15</title>
<polygon fill="#0c728c" stroke="#0c728c" points="172.75,-252 54,-252 54,-196 172.75,-196 172.75,-252"/>
<text text-anchor="middle" x="113.38" y="-238.5" font-family="Arial" font-size="10.00" fill="#ffffff">bool std::__invoke_impl</text>
<text text-anchor="middle" x="113.38" y="-226.5" font-family="Arial" font-size="10.00" fill="#ffffff">19.80%</text>
<text text-anchor="middle" x="113.38" y="-214.5" font-family="Arial" font-size="10.00" fill="#ffffff">(3.05%)</text>
<text text-anchor="middle" x="113.38" y="-202.5" font-family="Arial" font-size="10.00" fill="#ffffff">153363216×</text>
</g>
<!-- 9&#45;&gt;15 -->
<g id="edge13" class="edge">
<title>9&#45;&gt;15</title>
<path fill="none" stroke="#0c728c" stroke-width="0.79" d="M113.38,-293.75C113.38,-282.5 113.38,-269.37 113.38,-257.61"/>
<polygon fill="#0c728c" stroke="#0c728c" stroke-width="0.79" points="114.92,-257.92 113.38,-253.52 111.84,-257.92 114.92,-257.92"/>
<text text-anchor="middle" x="140" y="-275.5" font-family="Arial" font-size="10.00" fill="#0c728c">19.80%</text>
<text text-anchor="middle" x="140" y="-263.5" font-family="Arial" font-size="10.00" fill="#0c728c">153363216×</text>
</g>
<!-- 16 -->
<g id="node19" class="node">
<title>16</title>
<polygon fill="#0c6088" stroke="#0c6088" points="226.75,-154 0,-154 0,-98 226.75,-98 226.75,-154"/>
<text text-anchor="middle" x="113.38" y="-140.5" font-family="Arial" font-size="10.00" fill="#ffffff">Solver::removeCandidates::{lambda#1}::operator</text>
<text text-anchor="middle" x="113.38" y="-128.5" font-family="Arial" font-size="10.00" fill="#ffffff">16.75%</text>
<text text-anchor="middle" x="113.38" y="-116.5" font-family="Arial" font-size="10.00" fill="#ffffff">(4.57%)</text>
<text text-anchor="middle" x="113.38" y="-104.5" font-family="Arial" font-size="10.00" fill="#ffffff">153363216×</text>
</g>
<!-- 15&#45;&gt;16 -->
<g id="edge18" class="edge">
<title>15&#45;&gt;16</title>
<path fill="none" stroke="#0c6088" stroke-width="0.67" d="M113.38,-195.75C113.38,-184.4 113.38,-171.13 113.38,-159.3"/>
<polygon fill="#0c6088" stroke="#0c6088" stroke-width="0.67" points="114.81,-159.44 113.38,-155.34 111.94,-159.44 114.81,-159.44"/>
<text text-anchor="middle" x="140" y="-177.5" font-family="Arial" font-size="10.00" fill="#0c6088">16.75%</text>
<text text-anchor="middle" x="140" y="-165.5" font-family="Arial" font-size="10.00" fill="#0c6088">153363216×</text>
</g>
<!-- 12 -->
<g id="node16" class="node">
<title>12</title>
<polygon fill="#0c9590" stroke="#0c9590" points="662.75,-742 430,-742 430,-686 662.75,-686 662.75,-742"/>
<text text-anchor="middle" x="546.38" y="-728.5" font-family="Arial" font-size="10.00" fill="#ffffff">__gnu_cxx::__normal_iterator std::__min_element</text>
<text text-anchor="middle" x="546.38" y="-716.5" font-family="Arial" font-size="10.00" fill="#ffffff">25.89%</text>
<text text-anchor="middle" x="546.38" y="-704.5" font-family="Arial" font-size="10.00" fill="#ffffff">(9.14%)</text>
<text text-anchor="middle" x="546.38" y="-692.5" font-family="Arial" font-size="10.00" fill="#ffffff">15438×</text>
</g>
<!-- 11&#45;&gt;12 -->
<g id="edge15" class="edge">
<title>11&#45;&gt;12</title>
<path fill="none" stroke="#0c9590" stroke-width="1.04" d="M543.51,-783.75C543.96,-772.9 544.49,-760.31 544.96,-748.89"/>
<polygon fill="#0c9590" stroke="#0c9590" stroke-width="1.04" points="546.74,-749.06 545.17,-743.89 543.18,-748.92 546.74,-749.06"/>
<text text-anchor="middle" x="561.35" y="-765.5" font-family="Arial" font-size="10.00" fill="#0c9590">25.89%</text>
<text text-anchor="middle" x="561.35" y="-753.5" font-family="Arial" font-size="10.00" fill="#0c9590">15438×</text>
</g>
<!-- 17 -->
<g id="node17" class="node">
<title>17</title>
<polygon fill="#0c6088" stroke="#0c6088" points="662,-644 430.75,-644 430.75,-588 662,-588 662,-644"/>
<text text-anchor="middle" x="546.38" y="-630.5" font-family="Arial" font-size="10.00" fill="#ffffff">bool __gnu_cxx::__ops::_Iter_comp_iter::operator</text>
<text text-anchor="middle" x="546.38" y="-618.5" font-family="Arial" font-size="10.00" fill="#ffffff">16.75%</text>
<text text-anchor="middle" x="546.38" y="-606.5" font-family="Arial" font-size="10.00" fill="#ffffff">(6.09%)</text>
<text text-anchor="middle" x="546.38" y="-594.5" font-family="Arial" font-size="10.00" fill="#ffffff">153347778×</text>
</g>
<!-- 12&#45;&gt;17 -->
<g id="edge16" class="edge">
<title>12&#45;&gt;17</title>
<path fill="none" stroke="#0c6088" stroke-width="0.67" d="M546.38,-685.75C546.38,-674.4 546.38,-661.13 546.38,-649.3"/>
<polygon fill="#0c6088" stroke="#0c6088" stroke-width="0.67" points="547.81,-649.44 546.38,-645.34 544.94,-649.44 547.81,-649.44"/>
<text text-anchor="middle" x="573" y="-667.5" font-family="Arial" font-size="10.00" fill="#0c6088">16.75%</text>
<text text-anchor="middle" x="573" y="-655.5" font-family="Arial" font-size="10.00" fill="#0c6088">153347778×</text>
</g>
<!-- 19 -->
<g id="node21" class="node">
<title>19</title>
<polygon fill="#0d3e80" stroke="#0d3e80" points="655.25,-546 437.5,-546 437.5,-490 655.25,-490 655.25,-546"/>
<text text-anchor="middle" x="546.38" y="-532.5" font-family="Arial" font-size="10.00" fill="#ffffff">Solver::getExtremePoint::{lambda#1}::operator</text>
<text text-anchor="middle" x="546.38" y="-520.5" font-family="Arial" font-size="10.00" fill="#ffffff">10.66%</text>
<text text-anchor="middle" x="546.38" y="-508.5" font-family="Arial" font-size="10.00" fill="#ffffff">(10.66%)</text>
<text text-anchor="middle" x="546.38" y="-496.5" font-family="Arial" font-size="10.00" fill="#ffffff">153347778×</text>
</g>
<!-- 17&#45;&gt;19 -->
<g id="edge20" class="edge">
<title>17&#45;&gt;19</title>
<path fill="none" stroke="#0d3e80" stroke-width="0.5" d="M546.38,-587.75C546.38,-576.09 546.38,-562.42 546.38,-550.35"/>
<polygon fill="#0d3e80" stroke="#0d3e80" stroke-width="0.5" points="547.6,-550.58 546.38,-547.08 545.15,-550.58 547.6,-550.58"/>
<text text-anchor="middle" x="573" y="-569.5" font-family="Arial" font-size="10.00" fill="#0d3e80">10.66%</text>
<text text-anchor="middle" x="573" y="-557.5" font-family="Arial" font-size="10.00" fill="#0d3e80">153347778×</text>
</g>
<!-- 14 -->
<g id="node18" class="node">
<title>14</title>
<polygon fill="#0c758d" stroke="#0c758d" points="704.88,-1220 649.88,-1220 649.88,-1176 704.88,-1176 704.88,-1220"/>
<text text-anchor="middle" x="677.38" y="-1206.5" font-family="Arial" font-size="10.00" fill="#ffffff">_init</text>
<text text-anchor="middle" x="677.38" y="-1194.5" font-family="Arial" font-size="10.00" fill="#ffffff">20.30%</text>
<text text-anchor="middle" x="677.38" y="-1182.5" font-family="Arial" font-size="10.00" fill="#ffffff">(20.30%)</text>
</g>
<!-- 18 -->
<g id="node20" class="node">
<title>18</title>
<polygon fill="#0d4682" stroke="#0d4682" points="154,-56 72.75,-56 72.75,0 154,0 154,-56"/>
<text text-anchor="middle" x="113.38" y="-42.5" font-family="Arial" font-size="10.00" fill="#ffffff">Point::distance</text>
<text text-anchor="middle" x="113.38" y="-30.5" font-family="Arial" font-size="10.00" fill="#ffffff">12.18%</text>
<text text-anchor="middle" x="113.38" y="-18.5" font-family="Arial" font-size="10.00" fill="#ffffff">(12.18%)</text>
<text text-anchor="middle" x="113.38" y="-6.5" font-family="Arial" font-size="10.00" fill="#ffffff">153363216×</text>
</g>
<!-- 16&#45;&gt;18 -->
<g id="edge19" class="edge">
<title>16&#45;&gt;18</title>
<path fill="none" stroke="#0d4682" stroke-width="0.5" d="M113.38,-97.75C113.38,-86.09 113.38,-72.42 113.38,-60.35"/>
<polygon fill="#0d4682" stroke="#0d4682" stroke-width="0.5" points="114.6,-60.58 113.38,-57.08 112.15,-60.58 114.6,-60.58"/>
<text text-anchor="middle" x="140" y="-79.5" font-family="Arial" font-size="10.00" fill="#0d4682">12.18%</text>
<text text-anchor="middle" x="140" y="-67.5" font-family="Arial" font-size="10.00" fill="#0d4682">153363216×</text>
</g>
<!-- 23 -->
<g id="node23" class="node">
<title>23</title>
<polygon fill="#0d1e78" stroke="#0d1e78" points="858.12,-938 654.62,-938 654.62,-882 858.12,-882 858.12,-938"/>
<text text-anchor="middle" x="756.38" y="-924.5" font-family="Arial" font-size="10.00" fill="#ffffff">__gnu_cxx::__normal_iterator std::__find_if</text>
<text text-anchor="middle" x="756.38" y="-912.5" font-family="Arial" font-size="10.00" fill="#ffffff">4.06%</text>
<text text-anchor="middle" x="756.38" y="-900.5" font-family="Arial" font-size="10.00" fill="#ffffff">(1.52%)</text>
<text text-anchor="middle" x="756.38" y="-888.5" font-family="Arial" font-size="10.00" fill="#ffffff">20000×</text>
</g>
<!-- 21&#45;&gt;23 -->
<g id="edge21" class="edge">
<title>21&#45;&gt;23</title>
<path fill="none" stroke="#0d1e78" stroke-width="0.5" d="M738.47,-979.75C741.51,-968.09 745.07,-954.42 748.21,-942.35"/>
<polygon fill="#0d1e78" stroke="#0d1e78" stroke-width="0.5" points="749.37,-942.75 749.07,-939.05 747,-942.13 749.37,-942.75"/>
<text text-anchor="middle" x="762.97" y="-961.5" font-family="Arial" font-size="10.00" fill="#0d1e78">4.06%</text>
<text text-anchor="middle" x="762.97" y="-949.5" font-family="Arial" font-size="10.00" fill="#0d1e78">20000×</text>
</g>
<!-- 24 -->
<g id="node24" class="node">
<title>24</title>
<polygon fill="#0d1776" stroke="#0d1776" points="897.88,-840 662.88,-840 662.88,-784 897.88,-784 897.88,-840"/>
<text text-anchor="middle" x="780.38" y="-826.5" font-family="Arial" font-size="10.00" fill="#ffffff">bool __gnu_cxx::__ops::_Iter_equals_val::operator</text>
<text text-anchor="middle" x="780.38" y="-814.5" font-family="Arial" font-size="10.00" fill="#ffffff">2.54%</text>
<text text-anchor="middle" x="780.38" y="-802.5" font-family="Arial" font-size="10.00" fill="#ffffff">(2.03%)</text>
<text text-anchor="middle" x="780.38" y="-790.5" font-family="Arial" font-size="10.00" fill="#ffffff">36955289×</text>
</g>
<!-- 23&#45;&gt;24 -->
<g id="edge23" class="edge">
<title>23&#45;&gt;24</title>
<path fill="none" stroke="#0d1776" stroke-width="0.5" d="M763.19,-881.75C766.1,-870.09 769.52,-856.42 772.54,-844.35"/>
<polygon fill="#0d1776" stroke="#0d1776" stroke-width="0.5" points="773.7,-844.75 773.36,-841.06 771.32,-844.15 773.7,-844.75"/>
<text text-anchor="middle" x="795.23" y="-863.5" font-family="Arial" font-size="10.00" fill="#0d1776">2.54%</text>
<text text-anchor="middle" x="795.23" y="-851.5" font-family="Arial" font-size="10.00" fill="#0d1776">36955289×</text>
</g>
</g>
</svg>
