<?xml version="1.0" encoding="UTF-8" standalone="no"?>
<!DOCTYPE svg PUBLIC "-//W3C//DTD SVG 1.1//EN"
 "http://www.w3.org/Graphics/SVG/1.1/DTD/svg11.dtd">
<!-- Generated by graphviz version 12.2.1 (20241206.2353)
 -->
<!-- Pages: 1 -->
<svg width="608pt" height="1228pt"
 viewBox="0.00 0.00 607.62 1228.00" xmlns="http://www.w3.org/2000/svg" xmlns:xlink="http://www.w3.org/1999/xlink">
<g id="graph0" class="graph" transform="scale(1 1) rotate(0) translate(4 1224)">
<g id="a_graph0"><a xlink:title=" ">
<polygon fill="white" stroke="none" points="-4,4 -4,-1224 603.62,-1224 603.62,4 -4,4"/>
</a>
</g>
<!-- 1 -->
<g id="node1" class="node">
<title>1</title>
<polygon fill="#e0b705" stroke="#e0b705" points="414.12,-1220 364.38,-1220 364.38,-1176 414.12,-1176 414.12,-1220"/>
<text text-anchor="middle" x="389.25" y="-1206.5" font-family="Arial" font-size="10.00" fill="#ffffff">main</text>
<text text-anchor="middle" x="389.25" y="-1194.5" font-family="Arial" font-size="10.00" fill="#ffffff">79.70%</text>
<text text-anchor="middle" x="389.25" y="-1182.5" font-family="Arial" font-size="10.00" fill="#ffffff">(0.00%)</text>
</g>
<!-- 3 -->
<g id="node2" class="node">
<title>3</title>
<polygon fill="#d8d906" stroke="#d8d906" points="437.75,-1134 340.75,-1134 340.75,-1078 437.75,-1078 437.75,-1134"/>
<text text-anchor="middle" x="389.25" y="-1120.5" font-family="Arial" font-size="10.00" fill="#ffffff">Solver::manyRuns</text>
<text text-anchor="middle" x="389.25" y="-1108.5" font-family="Arial" font-size="10.00" fill="#ffffff">74.84%</text>
<text text-anchor="middle" x="389.25" y="-1096.5" font-family="Arial" font-size="10.00" fill="#ffffff">(0.00%)</text>
<text text-anchor="middle" x="389.25" y="-1084.5" font-family="Arial" font-size="10.00" fill="#ffffff">1×</text>
</g>
<!-- 1&#45;&gt;3 -->
<g id="edge1" class="edge">
<title>1&#45;&gt;3</title>
<path fill="none" stroke="#d8d906" stroke-width="2.99" d="M389.25,-1175.67C389.25,-1167.17 389.25,-1157.08 389.25,-1147.3"/>
<polygon fill="#d8d906" stroke="#d8d906" stroke-width="2.99" points="392.3,-1147.55 389.25,-1138.85 386.21,-1147.55 392.3,-1147.55"/>
<text text-anchor="middle" x="405.75" y="-1157.5" font-family="Arial" font-size="10.00" fill="#d8d906">74.84%</text>
<text text-anchor="middle" x="405.75" y="-1145.5" font-family="Arial" font-size="10.00" fill="#d8d906">1×</text>
</g>
<!-- 2 -->
<g id="node3" class="node">
<title>2</title>
<polygon fill="#d8d906" stroke="#d8d906" points="428.75,-1036 349.75,-1036 349.75,-980 428.75,-980 428.75,-1036"/>
<text text-anchor="middle" x="389.25" y="-1022.5" font-family="Arial" font-size="10.00" fill="#ffffff">Solver::greedy</text>
<text text-anchor="middle" x="389.25" y="-1010.5" font-family="Arial" font-size="10.00" fill="#ffffff">74.84%</text>
<text text-anchor="middle" x="389.25" y="-998.5" font-family="Arial" font-size="10.00" fill="#ffffff">(0.00%)</text>
<text text-anchor="middle" x="389.25" y="-986.5" font-family="Arial" font-size="10.00" fill="#ffffff">8×</text>
</g>
<!-- 3&#45;&gt;2 -->
<g id="edge4" class="edge">
<title>3&#45;&gt;2</title>
<path fill="none" stroke="#d8d906" stroke-width="2.99" d="M389.25,-1077.75C389.25,-1068.93 389.25,-1058.96 389.25,-1049.4"/>
<polygon fill="#d8d906" stroke="#d8d906" stroke-width="2.99" points="392.3,-1049.55 389.25,-1040.85 386.21,-1049.55 392.3,-1049.55"/>
<text text-anchor="middle" x="405.75" y="-1059.5" font-family="Arial" font-size="10.00" fill="#d8d906">74.84%</text>
<text text-anchor="middle" x="405.75" y="-1047.5" font-family="Arial" font-size="10.00" fill="#d8d906">8×</text>
</g>
<!-- 4 -->
<g id="node4" class="node">
<title>4</title>
<polygon fill="#0ab21d" stroke="#0ab21d" points="388,-938 256.5,-938 256.5,-882 388,-882 388,-938"/>
<text text-anchor="middle" x="322.25" y="-924.5" font-family="Arial" font-size="10.00" fill="#ffffff">Solver::removeCandidates</text>
<text text-anchor="middle" x="322.25" y="-912.5" font-family="Arial" font-size="10.00" fill="#ffffff">47.21%</text>
<text text-anchor="middle" x="322.25" y="-900.5" font-family="Arial" font-size="10.00" fill="#ffffff">(0.00%)</text>
<text text-anchor="middle" x="322.25" y="-888.5" font-family="Arial" font-size="10.00" fill="#ffffff">15438×</text>
</g>
<!-- 2&#45;&gt;4 -->
<g id="edge2" class="edge">
<title>2&#45;&gt;4</title>
<path fill="none" stroke="#0ab21d" stroke-width="1.89" d="M370.23,-979.75C362.94,-969.31 354.53,-957.25 346.8,-946.17"/>
<polygon fill="#0ab21d" stroke="#0ab21d" stroke-width="1.89" points="348.88,-944.94 342.96,-940.67 344.92,-947.71 348.88,-944.94"/>
<text text-anchor="middle" x="380.22" y="-961.5" font-family="Arial" font-size="10.00" fill="#0ab21d">47.21%</text>
<text text-anchor="middle" x="380.22" y="-949.5" font-family="Arial" font-size="10.00" fill="#0ab21d">15438×</text>
</g>
<!-- 10 -->
<g id="node5" class="node">
<title>10</title>
<polygon fill="#0c9590" stroke="#0c9590" points="527.5,-938 405,-938 405,-882 527.5,-882 527.5,-938"/>
<text text-anchor="middle" x="466.25" y="-924.5" font-family="Arial" font-size="10.00" fill="#ffffff">Solver::getExtremePoint</text>
<text text-anchor="middle" x="466.25" y="-912.5" font-family="Arial" font-size="10.00" fill="#ffffff">25.89%</text>
<text text-anchor="middle" x="466.25" y="-900.5" font-family="Arial" font-size="10.00" fill="#ffffff">(0.00%)</text>
<text text-anchor="middle" x="466.25" y="-888.5" font-family="Arial" font-size="10.00" fill="#ffffff">15438×</text>
</g>
<!-- 2&#45;&gt;10 -->
<g id="edge3" class="edge">
<title>2&#45;&gt;10</title>
<path fill="none" stroke="#0c9590" stroke-width="1.04" d="M411.11,-979.75C420.21,-968.4 430.85,-955.13 440.35,-943.3"/>
<polygon fill="#0c9590" stroke="#0c9590" stroke-width="1.04" points="441.55,-944.64 443.35,-939.55 438.77,-942.41 441.55,-944.64"/>
<text text-anchor="middle" x="453.41" y="-961.5" font-family="Arial" font-size="10.00" fill="#0c9590">25.89%</text>
<text text-anchor="middle" x="453.41" y="-949.5" font-family="Arial" font-size="10.00" fill="#0c9590">15438×</text>
</g>
<!-- 5 -->
<g id="node6" class="node">
<title>5</title>
<polygon fill="#0ab21d" stroke="#0ab21d" points="355,-840 187.5,-840 187.5,-784 355,-784 355,-840"/>
<text text-anchor="middle" x="271.25" y="-826.5" font-family="Arial" font-size="10.00" fill="#ffffff">std::vector::size_type std::erase_if</text>
<text text-anchor="middle" x="271.25" y="-814.5" font-family="Arial" font-size="10.00" fill="#ffffff">47.21%</text>
<text text-anchor="middle" x="271.25" y="-802.5" font-family="Arial" font-size="10.00" fill="#ffffff">(0.00%)</text>
<text text-anchor="middle" x="271.25" y="-790.5" font-family="Arial" font-size="10.00" fill="#ffffff">15438×</text>
</g>
<!-- 4&#45;&gt;5 -->
<g id="edge5" class="edge">
<title>4&#45;&gt;5</title>
<path fill="none" stroke="#0ab21d" stroke-width="1.89" d="M307.77,-881.75C302.33,-871.51 296.07,-859.72 290.28,-848.82"/>
<polygon fill="#0ab21d" stroke="#0ab21d" stroke-width="1.89" points="292.48,-847.81 287.11,-842.85 288.21,-850.07 292.48,-847.81"/>
<text text-anchor="middle" x="319.32" y="-863.5" font-family="Arial" font-size="10.00" fill="#0ab21d">47.21%</text>
<text text-anchor="middle" x="319.32" y="-851.5" font-family="Arial" font-size="10.00" fill="#0ab21d">15438×</text>
</g>
<!-- 11 -->
<g id="node13" class="node">
<title>11</title>
<polygon fill="#0c9590" stroke="#0c9590" points="590.38,-840 368.12,-840 368.12,-784 590.38,-784 590.38,-840"/>
<text text-anchor="middle" x="479.25" y="-826.5" font-family="Arial" font-size="10.00" fill="#ffffff">__gnu_cxx::__normal_iterator std::min_element</text>
<text text-anchor="middle" x="479.25" y="-814.5" font-family="Arial" font-size="10.00" fill="#ffffff">25.89%</text>
<text text-anchor="middle" x="479.25" y="-802.5" font-family="Arial" font-size="10.00" fill="#ffffff">(0.00%)</text>
<text text-anchor="middle" x="479.25" y="-790.5" font-family="Arial" font-size="10.00" fill="#ffffff">15438×</text>
</g>
<!-- 10&#45;&gt;11 -->
<g id="edge12" class="edge">
<title>10&#45;&gt;11</title>
<path fill="none" stroke="#0c9590" stroke-width="1.04" d="M469.94,-881.75C471.41,-870.9 473.11,-858.31 474.66,-846.89"/>
<polygon fill="#0c9590" stroke="#0c9590" stroke-width="1.04" points="476.42,-847.17 475.34,-841.88 472.89,-846.7 476.42,-847.17"/>
<text text-anchor="middle" x="490.8" y="-863.5" font-family="Arial" font-size="10.00" fill="#0c9590">25.89%</text>
<text text-anchor="middle" x="490.8" y="-851.5" font-family="Arial" font-size="10.00" fill="#0c9590">15438×</text>
</g>
<!-- 6 -->
<g id="node7" class="node">
<title>6</title>
<polygon fill="#0ab120" stroke="#0ab120" points="358.25,-742 138.25,-742 138.25,-686 358.25,-686 358.25,-742"/>
<text text-anchor="middle" x="248.25" y="-728.5" font-family="Arial" font-size="10.00" fill="#ffffff">__gnu_cxx::__normal_iterator std::__remove_if</text>
<text text-anchor="middle" x="248.25" y="-716.5" font-family="Arial" font-size="10.00" fill="#ffffff">46.70%</text>
<text text-anchor="middle" x="248.25" y="-704.5" font-family="Arial" font-size="10.00" fill="#ffffff">(2.54%)</text>
<text text-anchor="middle" x="248.25" y="-692.5" font-family="Arial" font-size="10.00" fill="#ffffff">15438×</text>
</g>
<!-- 5&#45;&gt;6 -->
<g id="edge6" class="edge">
<title>5&#45;&gt;6</title>
<path fill="none" stroke="#0ab120" stroke-width="1.87" d="M264.72,-783.75C262.32,-773.71 259.55,-762.18 256.99,-751.47"/>
<polygon fill="#0ab120" stroke="#0ab120" stroke-width="1.87" points="259.35,-751.13 255.46,-745.07 254.73,-752.24 259.35,-751.13"/>
<text text-anchor="middle" x="278.99" y="-765.5" font-family="Arial" font-size="10.00" fill="#0ab120">46.70%</text>
<text text-anchor="middle" x="278.99" y="-753.5" font-family="Arial" font-size="10.00" fill="#0ab120">15438×</text>
</g>
<!-- 7 -->
<g id="node8" class="node">
<title>7</title>
<polygon fill="#0ba554" stroke="#0ba554" points="239.88,-546 32.62,-546 32.62,-490 239.88,-490 239.88,-546"/>
<text text-anchor="middle" x="136.25" y="-532.5" font-family="Arial" font-size="10.00" fill="#ffffff">bool __gnu_cxx::__ops::_Iter_pred::operator</text>
<text text-anchor="middle" x="136.25" y="-520.5" font-family="Arial" font-size="10.00" fill="#ffffff">38.07%</text>
<text text-anchor="middle" x="136.25" y="-508.5" font-family="Arial" font-size="10.00" fill="#ffffff">(2.03%)</text>
<text text-anchor="middle" x="136.25" y="-496.5" font-family="Arial" font-size="10.00" fill="#ffffff">153363216×</text>
</g>
<!-- 6&#45;&gt;7 -->
<g id="edge7" class="edge">
<title>6&#45;&gt;7</title>
<path fill="none" stroke="#0c8591" stroke-width="0.91" d="M149.84,-685.65C130.6,-675.69 112.82,-662.2 101.25,-644 83.29,-615.73 97.97,-578.17 113.45,-551.62"/>
<polygon fill="#0c8591" stroke="#0c8591" stroke-width="0.91" points="114.81,-552.62 115.84,-547.64 111.93,-550.89 114.81,-552.62"/>
<text text-anchor="middle" x="125.25" y="-618.5" font-family="Arial" font-size="10.00" fill="#0c8591">22.87%</text>
<text text-anchor="middle" x="125.25" y="-606.5" font-family="Arial" font-size="10.00" fill="#0c8591">92134649×</text>
</g>
<!-- 13 -->
<g id="node9" class="node">
<title>13</title>
<polygon fill="#0c7b8e" stroke="#0c7b8e" points="357,-644 153.5,-644 153.5,-588 357,-588 357,-644"/>
<text text-anchor="middle" x="255.25" y="-630.5" font-family="Arial" font-size="10.00" fill="#ffffff">__gnu_cxx::__normal_iterator std::__find_if</text>
<text text-anchor="middle" x="255.25" y="-618.5" font-family="Arial" font-size="10.00" fill="#ffffff">21.29%</text>
<text text-anchor="middle" x="255.25" y="-606.5" font-family="Arial" font-size="10.00" fill="#ffffff">(6.09%)</text>
<text text-anchor="middle" x="255.25" y="-594.5" font-family="Arial" font-size="10.00" fill="#ffffff">15438×</text>
</g>
<!-- 6&#45;&gt;13 -->
<g id="edge8" class="edge">
<title>6&#45;&gt;13</title>
<path fill="none" stroke="#0c7b8e" stroke-width="0.85" d="M250.24,-685.75C251.05,-674.6 252,-661.6 252.85,-649.93"/>
<polygon fill="#0c7b8e" stroke="#0c7b8e" stroke-width="0.85" points="254.44,-650.31 253.16,-645.6 251.22,-650.07 254.44,-650.31"/>
<text text-anchor="middle" x="269.08" y="-667.5" font-family="Arial" font-size="10.00" fill="#0c7b8e">21.29%</text>
<text text-anchor="middle" x="269.08" y="-655.5" font-family="Arial" font-size="10.00" fill="#0c7b8e">15438×</text>
</g>
<!-- 8 -->
<g id="node10" class="node">
<title>8</title>
<polygon fill="#0ba260" stroke="#0ba260" points="272.5,-448 0,-448 0,-392 272.5,-392 272.5,-448"/>
<text text-anchor="middle" x="136.25" y="-434.5" font-family="Arial" font-size="10.00" fill="#ffffff">std::__invoke_result::type std::reference_wrapper::operator</text>
<text text-anchor="middle" x="136.25" y="-422.5" font-family="Arial" font-size="10.00" fill="#ffffff">36.04%</text>
<text text-anchor="middle" x="136.25" y="-410.5" font-family="Arial" font-size="10.00" fill="#ffffff">(4.57%)</text>
<text text-anchor="middle" x="136.25" y="-398.5" font-family="Arial" font-size="10.00" fill="#ffffff">153363216×</text>
</g>
<!-- 7&#45;&gt;8 -->
<g id="edge9" class="edge">
<title>7&#45;&gt;8</title>
<path fill="none" stroke="#0ba260" stroke-width="1.44" d="M136.25,-489.75C136.25,-479.41 136.25,-467.48 136.25,-456.5"/>
<polygon fill="#0ba260" stroke="#0ba260" stroke-width="1.44" points="138.35,-456.5 136.25,-450.5 134.15,-456.5 138.35,-456.5"/>
<text text-anchor="middle" x="162.88" y="-471.5" font-family="Arial" font-size="10.00" fill="#0ba260">36.04%</text>
<text text-anchor="middle" x="162.88" y="-459.5" font-family="Arial" font-size="10.00" fill="#0ba260">153363216×</text>
</g>
<!-- 13&#45;&gt;7 -->
<g id="edge15" class="edge">
<title>13&#45;&gt;7</title>
<path fill="none" stroke="#0c5786" stroke-width="0.61" d="M221.47,-587.75C206.52,-575.69 188.89,-561.46 173.55,-549.09"/>
<polygon fill="#0c5786" stroke="#0c5786" stroke-width="0.61" points="174.73,-548.29 170.84,-546.9 173.01,-550.41 174.73,-548.29"/>
<text text-anchor="middle" x="233.91" y="-569.5" font-family="Arial" font-size="10.00" fill="#0c5786">15.20%</text>
<text text-anchor="middle" x="233.91" y="-557.5" font-family="Arial" font-size="10.00" fill="#0c5786">61228567×</text>
</g>
<!-- 9 -->
<g id="node11" class="node">
<title>9</title>
<polygon fill="#0c968b" stroke="#0c968b" points="231.25,-350 41.25,-350 41.25,-294 231.25,-294 231.25,-350"/>
<text text-anchor="middle" x="136.25" y="-336.5" font-family="Arial" font-size="10.00" fill="#ffffff">std::__invoke_result::type std::__invoke</text>
<text text-anchor="middle" x="136.25" y="-324.5" font-family="Arial" font-size="10.00" fill="#ffffff">26.90%</text>
<text text-anchor="middle" x="136.25" y="-312.5" font-family="Arial" font-size="10.00" fill="#ffffff">(7.11%)</text>
<text text-anchor="middle" x="136.25" y="-300.5" font-family="Arial" font-size="10.00" fill="#ffffff">153363216×</text>
</g>
<!-- 8&#45;&gt;9 -->
<g id="edge10" class="edge">
<title>8&#45;&gt;9</title>
<path fill="none" stroke="#0c968b" stroke-width="1.08" d="M136.25,-391.75C136.25,-380.9 136.25,-368.31 136.25,-356.89"/>
<polygon fill="#0c968b" stroke="#0c968b" stroke-width="1.08" points="138.07,-357.16 136.25,-351.96 134.43,-357.16 138.07,-357.16"/>
<text text-anchor="middle" x="162.88" y="-373.5" font-family="Arial" font-size="10.00" fill="#0c968b">26.90%</text>
<text text-anchor="middle" x="162.88" y="-361.5" font-family="Arial" font-size="10.00" fill="#0c968b">153363216×</text>
</g>
<!-- 15 -->
<g id="node12" class="node">
<title>15</title>
<polygon fill="#0c728c" stroke="#0c728c" points="195.62,-252 76.88,-252 76.88,-196 195.62,-196 195.62,-252"/>
<text text-anchor="middle" x="136.25" y="-238.5" font-family="Arial" font-size="10.00" fill="#ffffff">bool std::__invoke_impl</text>
<text text-anchor="middle" x="136.25" y="-226.5" font-family="Arial" font-size="10.00" fill="#ffffff">19.80%</text>
<text text-anchor="middle" x="136.25" y="-214.5" font-family="Arial" font-size="10.00" fill="#ffffff">(3.05%)</text>
<text text-anchor="middle" x="136.25" y="-202.5" font-family="Arial" font-size="10.00" fill="#ffffff">153363216×</text>
</g>
<!-- 9&#45;&gt;15 -->
<g id="edge11" class="edge">
<title>9&#45;&gt;15</title>
<path fill="none" stroke="#0c728c" stroke-width="0.79" d="M136.25,-293.75C136.25,-282.5 136.25,-269.37 136.25,-257.61"/>
<polygon fill="#0c728c" stroke="#0c728c" stroke-width="0.79" points="137.79,-257.92 136.25,-253.52 134.71,-257.92 137.79,-257.92"/>
<text text-anchor="middle" x="162.88" y="-275.5" font-family="Arial" font-size="10.00" fill="#0c728c">19.80%</text>
<text text-anchor="middle" x="162.88" y="-263.5" font-family="Arial" font-size="10.00" fill="#0c728c">153363216×</text>
</g>
<!-- 16 -->
<g id="node17" class="node">
<title>16</title>
<polygon fill="#0c6088" stroke="#0c6088" points="249.62,-154 22.88,-154 22.88,-98 249.62,-98 249.62,-154"/>
<text text-anchor="middle" x="136.25" y="-140.5" font-family="Arial" font-size="10.00" fill="#ffffff">Solver::removeCandidates::{lambda#1}::operator</text>
<text text-anchor="middle" x="136.25" y="-128.5" font-family="Arial" font-size="10.00" fill="#ffffff">16.75%</text>
<text text-anchor="middle" x="136.25" y="-116.5" font-family="Arial" font-size="10.00" fill="#ffffff">(4.57%)</text>
<text text-anchor="middle" x="136.25" y="-104.5" font-family="Arial" font-size="10.00" fill="#ffffff">153363216×</text>
</g>
<!-- 15&#45;&gt;16 -->
<g id="edge16" class="edge">
<title>15&#45;&gt;16</title>
<path fill="none" stroke="#0c6088" stroke-width="0.67" d="M136.25,-195.75C136.25,-184.4 136.25,-171.13 136.25,-159.3"/>
<polygon fill="#0c6088" stroke="#0c6088" stroke-width="0.67" points="137.69,-159.44 136.25,-155.34 134.82,-159.44 137.69,-159.44"/>
<text text-anchor="middle" x="162.88" y="-177.5" font-family="Arial" font-size="10.00" fill="#0c6088">16.75%</text>
<text text-anchor="middle" x="162.88" y="-165.5" font-family="Arial" font-size="10.00" fill="#0c6088">153363216×</text>
</g>
<!-- 12 -->
<g id="node14" class="node">
<title>12</title>
<polygon fill="#0c9590" stroke="#0c9590" points="599.62,-742 366.88,-742 366.88,-686 599.62,-686 599.62,-742"/>
<text text-anchor="middle" x="483.25" y="-728.5" font-family="Arial" font-size="10.00" fill="#ffffff">__gnu_cxx::__normal_iterator std::__min_element</text>
<text text-anchor="middle" x="483.25" y="-716.5" font-family="Arial" font-size="10.00" fill="#ffffff">25.89%</text>
<text text-anchor="middle" x="483.25" y="-704.5" font-family="Arial" font-size="10.00" fill="#ffffff">(9.14%)</text>
<text text-anchor="middle" x="483.25" y="-692.5" font-family="Arial" font-size="10.00" fill="#ffffff">15438×</text>
</g>
<!-- 11&#45;&gt;12 -->
<g id="edge13" class="edge">
<title>11&#45;&gt;12</title>
<path fill="none" stroke="#0c9590" stroke-width="1.04" d="M480.39,-783.75C480.84,-772.9 481.36,-760.31 481.84,-748.89"/>
<polygon fill="#0c9590" stroke="#0c9590" stroke-width="1.04" points="483.62,-749.06 482.05,-743.89 480.05,-748.92 483.62,-749.06"/>
<text text-anchor="middle" x="498.23" y="-765.5" font-family="Arial" font-size="10.00" fill="#0c9590">25.89%</text>
<text text-anchor="middle" x="498.23" y="-753.5" font-family="Arial" font-size="10.00" fill="#0c9590">15438×</text>
</g>
<!-- 17 -->
<g id="node15" class="node">
<title>17</title>
<polygon fill="#0c6088" stroke="#0c6088" points="598.88,-644 367.62,-644 367.62,-588 598.88,-588 598.88,-644"/>
<text text-anchor="middle" x="483.25" y="-630.5" font-family="Arial" font-size="10.00" fill="#ffffff">bool __gnu_cxx::__ops::_Iter_comp_iter::operator</text>
<text text-anchor="middle" x="483.25" y="-618.5" font-family="Arial" font-size="10.00" fill="#ffffff">16.75%</text>
<text text-anchor="middle" x="483.25" y="-606.5" font-family="Arial" font-size="10.00" fill="#ffffff">(6.09%)</text>
<text text-anchor="middle" x="483.25" y="-594.5" font-family="Arial" font-size="10.00" fill="#ffffff">153347778×</text>
</g>
<!-- 12&#45;&gt;17 -->
<g id="edge14" class="edge">
<title>12&#45;&gt;17</title>
<path fill="none" stroke="#0c6088" stroke-width="0.67" d="M483.25,-685.75C483.25,-674.4 483.25,-661.13 483.25,-649.3"/>
<polygon fill="#0c6088" stroke="#0c6088" stroke-width="0.67" points="484.69,-649.44 483.25,-645.34 481.82,-649.44 484.69,-649.44"/>
<text text-anchor="middle" x="509.88" y="-667.5" font-family="Arial" font-size="10.00" fill="#0c6088">16.75%</text>
<text text-anchor="middle" x="509.88" y="-655.5" font-family="Arial" font-size="10.00" fill="#0c6088">153347778×</text>
</g>
<!-- 19 -->
<g id="node19" class="node">
<title>19</title>
<polygon fill="#0d3e80" stroke="#0d3e80" points="592.12,-546 374.38,-546 374.38,-490 592.12,-490 592.12,-546"/>
<text text-anchor="middle" x="483.25" y="-532.5" font-family="Arial" font-size="10.00" fill="#ffffff">Solver::getExtremePoint::{lambda#1}::operator</text>
<text text-anchor="middle" x="483.25" y="-520.5" font-family="Arial" font-size="10.00" fill="#ffffff">10.66%</text>
<text text-anchor="middle" x="483.25" y="-508.5" font-family="Arial" font-size="10.00" fill="#ffffff">(10.66%)</text>
<text text-anchor="middle" x="483.25" y="-496.5" font-family="Arial" font-size="10.00" fill="#ffffff">153347778×</text>
</g>
<!-- 17&#45;&gt;19 -->
<g id="edge18" class="edge">
<title>17&#45;&gt;19</title>
<path fill="none" stroke="#0d3e80" stroke-width="0.5" d="M483.25,-587.75C483.25,-576.09 483.25,-562.42 483.25,-550.35"/>
<polygon fill="#0d3e80" stroke="#0d3e80" stroke-width="0.5" points="484.48,-550.58 483.25,-547.08 482.03,-550.58 484.48,-550.58"/>
<text text-anchor="middle" x="509.88" y="-569.5" font-family="Arial" font-size="10.00" fill="#0d3e80">10.66%</text>
<text text-anchor="middle" x="509.88" y="-557.5" font-family="Arial" font-size="10.00" fill="#0d3e80">153347778×</text>
</g>
<!-- 14 -->
<g id="node16" class="node">
<title>14</title>
<polygon fill="#0c758d" stroke="#0c758d" points="477.75,-1220 422.75,-1220 422.75,-1176 477.75,-1176 477.75,-1220"/>
<text text-anchor="middle" x="450.25" y="-1206.5" font-family="Arial" font-size="10.00" fill="#ffffff">_init</text>
<text text-anchor="middle" x="450.25" y="-1194.5" font-family="Arial" font-size="10.00" fill="#ffffff">20.30%</text>
<text text-anchor="middle" x="450.25" y="-1182.5" font-family="Arial" font-size="10.00" fill="#ffffff">(20.30%)</text>
</g>
<!-- 18 -->
<g id="node18" class="node">
<title>18</title>
<polygon fill="#0d4682" stroke="#0d4682" points="176.88,-56 95.62,-56 95.62,0 176.88,0 176.88,-56"/>
<text text-anchor="middle" x="136.25" y="-42.5" font-family="Arial" font-size="10.00" fill="#ffffff">Point::distance</text>
<text text-anchor="middle" x="136.25" y="-30.5" font-family="Arial" font-size="10.00" fill="#ffffff">12.18%</text>
<text text-anchor="middle" x="136.25" y="-18.5" font-family="Arial" font-size="10.00" fill="#ffffff">(12.18%)</text>
<text text-anchor="middle" x="136.25" y="-6.5" font-family="Arial" font-size="10.00" fill="#ffffff">153363216×</text>
</g>
<!-- 16&#45;&gt;18 -->
<g id="edge17" class="edge">
<title>16&#45;&gt;18</title>
<path fill="none" stroke="#0d4682" stroke-width="0.5" d="M136.25,-97.75C136.25,-86.09 136.25,-72.42 136.25,-60.35"/>
<polygon fill="#0d4682" stroke="#0d4682" stroke-width="0.5" points="137.48,-60.58 136.25,-57.08 135.03,-60.58 137.48,-60.58"/>
<text text-anchor="middle" x="162.88" y="-79.5" font-family="Arial" font-size="10.00" fill="#0d4682">12.18%</text>
<text text-anchor="middle" x="162.88" y="-67.5" font-family="Arial" font-size="10.00" fill="#0d4682">153363216×</text>
</g>
</g>
</svg>
